#!OML:ASF F:\VICON\USERDATA\INSTALL\rory3\rory3.ASF
:FULLY-SPECIFIED
:DEGREES
26
root 0.19778914948636034 17.983627102323627 2.9781174897641467 -1.9675401946015287 -0.30451599359974746 -0.4081219408756427
lfemur -0.3426710191749125 -3.8604794805962372 -24.269169375624653
ltibia 16.84243913002998
lfoot -12.411243764194436 3.616460803607862
ltoes -7.1878056555382415
rfemur -17.38988860387627 3.0833051698646274 21.63839416498
rtibia 66.39184333994076
rfoot -3.2364916886305615 0.3293012203374328
rtoes 5.605101669728718
lowerback 9.988784405837771 0.8648552942076946 -0.5927958539804998
upperback 0.6091469965300674 0.7637175227687485 0.8242306224123297
thorax -4.976478714761855 0.5286061075266097 1.5662625562552002
lowerneck -16.796632798511233 -2.89829343193842 -1.45631931557047
upperneck 21.448491607526197 -3.7587385886342055 0.7292005363408595
head 9.689612771817638 -1.8217782957310538 0.06694246363118597
lclavicle -2.7971981745061933e-15 -4.1600761640112067e-16
lhumerus -28.043966600138994 -1.6921294766933046 82.8158352723307
lradius 21.555262131812885
lwrist 6.4976630041549726
lhand -29.182632431520606 23.582768761815846
lfingers 7.1250199999999975
lthumb -2.5601367847800174 53.71145662981375
rclavicle -2.7971981744755342e-15 -4.1600761638020693e-16
rhumerus -29.564400090057937 -18.687485306491098 -81.26408201524833
rradius 20.539260433938487
rwrist 7.073952662747795
rhand -17.512261903111956 20.33635014913742
rfingers 7.1250199999999975
rthumb 8.442414382742658 -9.730318425337682
27
root 0.13661987976269285 17.955789969927913 3.6821496660181277 -2.187978667285527 -0.7542432379393966 -0.9828066723436852
lfemur 1.308360255256936 -3.690566994841557 -23.610839320368775
ltibia 17.02383369697143
lfoot -12.63955332432175 5.72712435419834
ltoes -9.039609332855088
rfemur -16.572614236734278 3.7125344836313974 22.737575739066564
rtibia 64.0448243310428
rfoot -4.104102051618313 -0.13927106948328483
rtoes 6.122863969777188
lowerback 10.231958673171505 0.8309707742744368 -0.5252704679958555
upperback 0.6570070103505299 0.6976436531150535 0.9026754787544438
thorax -4.995877037827847 0.511964039138653 1.873699326218548
lowerneck -16.822966687481525 -2.892369862148714 -1.4134332106331104
upperneck 21.40139364894464 -3.7437113327390845 0.6920816359292069
head 9.636283144479505 -1.813950322182415 0.06599449918474402
lclavicle -2.7971981745023267e-15 -4.160076163979886e-16
lhumerus -26.431781756517744 -2.724264476033343 82.36499001803813
lradius 22.478626366254733
lwrist 6.598990789349034
lhand -29.357619787295413 23.259202869831356
lfingers 7.1250199999999975
lthumb -2.7730991341594753 53.31182950267981
rclavicle -2.797198174477072e-15 -4.160076163806322e-16
rhumerus -30.349139743649207 -20.143778388559465 -80.94161165904599
rradius 19.262685018465305
rwrist 8.329745165974664
rhand -17.53582083987892 20.384578541395385
rfingers 7.1250199999999975
rthumb 8.344012090241137 -9.854416399771246
28
root 0.08020065628375789 17.91293381889541 4.511106469008872 -2.515172265606079 -1.3082929445148963 -1.454631032255214
lfemur 2.300335958922478 -3.326664519521732 -22.935330734750053
ltibia 17.746409039202888
lfoot -11.27119613632376 6.1748257582319415
ltoes -11.292340645778319
rfemur -15.931895454897397 3.971718590545186 23.47363710648569
rtibia 61.72513065762499
rfoot -4.717748750226402 -0.6635879762806463
rtoes 6.710279699283929
lowerback 10.425582350722703 0.8717890081821364 -0.566115180373687
upperback 0.6683204605039649 0.727112729215565 1.0063006401892036
thorax -5.0222822637042315 0.5284077893698563 1.967222322824444
lowerneck -16.846792295585782 -2.8773328299951357 -1.4193678855613514
upperneck 21.332682535142915 -3.713324060920715 0.6515988935571482
head 9.606371733447677 -1.8019999179704922 0.0526091005590341
lclavicle -2.797198174510773e-15 -4.160076164028623e-16
lhumerus -24.97411806969809 -3.250551838678799 81.94123549394648
lradius 23.72324294828681
lwrist 6.385872669802759
lhand -29.24564014385935 22.903517015131975
lfingers 7.1250199999999975
lthumb -2.5559919953087986 53.08655621802789
rclavicle -2.7971981744689784e-15 -4.160076163744445e-16
rhumerus -31.08507513028859 -21.46723459775154 -80.5286336098625
rradius 18.80267258657976
rwrist 8.92480844934046
rhand -17.354492265800754 20.541845059439865
rfingers 7.1250199999999975
rthumb 8.625814735666538 -9.639572975749537
29
root 0.02144866041364668 17.867400124240373 5.016557090502633 -2.647076294621543 -2.0269904336374354 -1.8255009900839385
lfemur 2.537124714993414 -2.714708353098095 -22.116421168637416
ltibia 19.726045335577616
lfoot -8.08169916675154 4.498697623114846
ltoes -11.64674708363336
rfemur -15.507686826677045 4.18208430065043 24.009521839221197
rtibia 58.92931010012678
rfoot -5.344067641080693 -1.193052875204975
rtoes 6.672110965039112
lowerback 10.53313716823652 0.9496311558516084 -0.652699293845207
upperback 0.6595938979619673 0.7919388768488627 1.1682845810527096
thorax -5.058224453484536 0.5356287962029873 2.0024750565037093
lowerneck -16.86009212786731 -2.8670967378961385 -1.4534758667847845
upperneck 21.277742527003927 -3.690099499928867 0.5840326144849566
head 9.594926945284348 -1.7925693440345662 0.009558422680637502
lclavicle -2.797198174527715e-15 -4.1600761641330556e-16
lhumerus -23.81964807743762 -3.3187679852833663 81.61728860998224
lradius 25.221641890379317
lwrist 6.513626321703022
lhand -29.45251573837667 23.31186256515706
lfingers 7.1250199999999975
lthumb -2.8606426954624786 53.241814274104776
rclavicle -2.797198174463745e-15 -4.160076163701397e-16
rhumerus -31.662551042750636 -22.561733152823248 -80.00682059115712
rradius 19.06679106838866
rwrist 8.264698128404412
rhand -17.22942169881194 20.790918313136103
rfingers 7.1250199999999975
rthumb 8.846296641801752 -9.26443218253753
30
root -0.012069366979500673 17.83349550597175 5.757576016088445 -2.4895285326599117 -2.5246843241166523 -2.3249743077685485
lfemur 3.1553498348502806 -2.1109723129856306 -20.872200879766563
ltibia 22.024331212344308
lfoot -3.6434749238681947 0.6267839828160466
ltoes -6.688953610238121
rfemur -15.403962952178 4.202882226992072 24.583813174546517
rtibia 55.84151474075711
rfoot -6.113199231511826 -1.7654919449473505
rtoes 5.806872517111402
lowerback 10.492184590830627 0.899843363365114 -0.6281097448828894
upperback 0.6478092018660487 0.7569500310418273 1.3126042704785181
thorax -5.069164788171569 0.5015703827483632 2.0767223183650154
lowerneck -16.84320823853307 -2.842680544815918 -1.5577586930174638
upperneck 21.323403955123478 -3.652841584425111 0.5131612030520905
head 9.646644875190786 -1.774418758863764 -0.014261842662512514
lclavicle -2.7971981745300307e-15 -4.1600761641458573e-16
lhumerus -23.03647885919898 -2.8609501422988606 81.34462321703593
lradius 26.800390635028652
lwrist 7.007193381185499
lhand -29.379614331302673 23.919705193824587
lfingers 7.1250199999999975
lthumb -2.862254375578788 53.60008630907951
rclavicle -2.797198174465221e-15 -4.160076163708133e-16
rhumerus -32.11026457355805 -23.393166355086116 -79.47483782069014
rradius 19.780983709527227
rwrist 6.564273752039424
rhand -17.03162313857099 20.680401712130145
rfingers 7.1250199999999975
rthumb 9.093419657692783 -9.295325764944321
31
root -0.03543206991629033 17.807632176313525 6.7311951169467505 -2.31447023120159 -2.912767678855023 -2.408401915661249
lfemur 3.511977473969335 -1.732547501045712 -20.273017694871175
ltibia 24.682035254611833
lfoot 0.23089471740632828 -2.6142834915502804
ltoes -5.1174213517486535
rfemur -15.500657200172947 4.226181465055968 24.758062600497908
rtibia 52.92887057142903
rfoot -7.014457690585065 -2.3599574064687245
rtoes 5.812404311075648
lowerback 10.428870679689082 0.8343211989410027 -0.7404680739335752
upperback 0.5827641640911976 0.6490510660201556 1.4518934582926664
thorax -5.112722843622918 0.45378712256651943 2.175088846989356
lowerneck -16.841429083571075 -2.809092302888701 -1.5944944825940262
upperneck 21.428789343924763 -3.598723371260805 0.470282825772979
head 9.750815001106384 -1.7511785948533374 -0.030872278258505748
lclavicle -2.797198174527676e-15 -4.1600761641261225e-16
lhumerus -22.636574128538605 -2.661265977393878 81.21596916731299
lradius 28.38485009959721
lwrist 7.5952120628613695
lhand -29.180315793256128 24.35196628332617
lfingers 7.1250199999999975
lthumb -2.704207455070599 53.96933752878383
rclavicle -2.7971981744620593e-15 -4.1600761636831165e-16
rhumerus -32.41826173217078 -23.916844507286445 -78.93924571947585
rradius 20.685608860683043
rwrist 4.8324868373759795
rhand -16.8940263065092 21.09793043124331
rfingers 7.1250199999999975
rthumb 9.337950902045002 -8.665071132824725
32
root -0.04689663652531667 17.80594855604031 7.164499675525139 -1.9136257283849976 -3.016585194526969 -2.336126986283696
lfemur 3.670012840036776 -1.6922129810923172 -19.93285303696864
ltibia 27.342229691833502
lfoot 2.517675277923936 -3.6859719694909945
ltoes -3.2583960287630553
rfemur -15.685133407457766 4.246994441386197 24.73170446636809
rtibia 49.81750536658881
rfoot -7.843237784669945 -2.8015599309598183
rtoes 5.479696004269468
lowerback 10.30375258725579 0.6726259347103004 -0.8539617937395059
upperback 0.5213104484227283 0.44152874126122177 1.6044817177161685
thorax -5.109204838925071 0.34330838671874414 2.332688214584868
lowerneck -16.869067427704152 -2.78590690691614 -1.558665335452039
upperneck 21.53929402643441 -3.5595717172509493 0.447192152342997
head 9.813074345021022 -1.7343211100395546 -0.024928240165395382
lclavicle -2.797198174524912e-15 -4.1600761641062817e-16
lhumerus -22.469673371175986 -2.607808699153919 81.33067555898552
lradius 29.728509749909474
lwrist 8.14084872088546
lhand -28.18643241427242 24.59532406522478
lfingers 7.1250199999999975
lthumb -1.7782826441563273 54.25111950884963
rclavicle -2.7971981744680755e-15 -4.160076163722054e-16
rhumerus -32.524583484003855 -24.082247120221247 -78.28017116275383
rradius 21.638288984109323
rwrist 3.548803265086081
rhand -16.9693353846996 21.252486177651836
rfingers 7.1250199999999975
rthumb 9.354047860999138 -8.397633129578738
33
root -0.053720384539184485 17.803555141344255 7.1964767511650045 -1.7735713917924487 -3.2781916664892323 -1.6533706626118725
lfemur 3.9481110539080184 -1.9027772264688196 -20.50711814223214
ltibia 29.809683144631336
lfoot 3.8773002299697668 -4.132823737301603
ltoes -3.26597510162303
rfemur -16.174921980473183 4.359503509084983 24.22066677803576
rtibia 46.99231016061776
rfoot -8.709435002594294 -2.993024718556989
rtoes 5.851778268022965
lowerback 10.208115916116272 0.4759321357723862 -1.4768260543017144
upperback 0.45567349431072657 0.15938572738395584 1.6207526962076588
thorax -5.101211782345707 0.2179590495803465 2.5804545386664586
lowerneck -16.864710214812263 -2.7648494211464496 -1.516827959828401
upperneck 21.636157536795448 -3.5236271067153773 0.4182913976457139
head 9.864175175011525 -1.7223492193621148 -0.025822763000103915
lclavicle -2.7971981745264327e-15 -4.160076164119227e-16
lhumerus -22.389547085728466 -2.39755869785541 81.57262240164937
lradius 30.67973287457876
lwrist 7.967775034404335
lhand -27.72823193470448 23.800452026891783
lfingers 7.1250199999999975
lthumb -1.2990150061344996 53.73243046806208
rclavicle -2.797198174475165e-15 -4.160076163772806e-16
rhumerus -32.511666642610066 -24.074863392452187 -77.7087671640168
rradius 22.519738400683895
rwrist 3.7691916464696904
rhand -17.16652072487308 21.333134562991194
rfingers 7.1250199999999975
rthumb 9.076975036092135 -8.459311104206805
